# xmcd
#
# Track frame offsets: 
#        150
#        1412
#        13470
#        30388
#        42605
#        58251
#        74993
#        89906
#        112504
#        126695
#        140071
#        140901
#        152132
#
# Disc length: 2068 seconds
#
# Revision: 0
# Processed by: cddbd v1.5.2PL0 Copyright (c) Steve Scherf et al.
# Submitted via: ExactAudioCopyFreeDBPlugin 1.0
#
DISCID=d208120d
DTITLE=The Chalks - 3 Girls 3 Guitars 3 Chords
DYEAR=2004
DGENRE=Country
TTITLE0=And we are...
TTITLE1=Boll Weevil
TTITLE2=Hog Wild and Hog Tied
TTITLE3=The ballad of Belva Chalk
TTITLE4=Wait Weight
TTITLE5=Prayer In Open G
TTITLE6=Hot Rod Diggety Dawg
TTITLE7=Judelle's Blues
TTITLE8=Walk the Chalk Line
TTITLE9=Lasso of the Lord
TTITLE10=Hey, Sister...
TTITLE11=Daybreak
TTITLE12=To err is human...
EXTD=
EXTT0=
EXTT1=
EXTT2=
EXTT3=
EXTT4=
EXTT5=
EXTT6=
EXTT7=
EXTT8=
EXTT9=
EXTT10=
EXTT11=
EXTT12=
PLAYORDER=
